<mxfile host="app.diagrams.net" modified="2024-05-15T15:15:07.264Z" agent="Mozilla/5.0 (Windows NT 10.0; Win64; x64) AppleWebKit/537.36 (KHTML, like Gecko) Chrome/124.0.0.0 Safari/537.36 Edg/124.0.0.0" etag="HdtkyrTHhiBaFstZ6WdH" version="24.4.0" type="device">
  <diagram name="Page-1" id="7e0a89b8-554c-2b80-1dc8-d5c74ca68de4">
    <mxGraphModel dx="1339" dy="751" grid="0" gridSize="10" guides="1" tooltips="1" connect="1" arrows="1" fold="1" page="1" pageScale="1" pageWidth="1100" pageHeight="850" background="none" math="0" shadow="0">
      <root>
        <mxCell id="0" />
        <mxCell id="1" parent="0" />
        <mxCell id="1cb643a89b7d889d-6" value="330&amp;nbsp;&lt;b&gt;Î©&lt;/b&gt;" style="verticalLabelPosition=bottom;shadow=0;dashed=0;align=center;html=1;verticalAlign=top;strokeWidth=1;shape=mxgraph.electrical.resistors.resistor_2;rounded=1;comic=0;labelBackgroundColor=none;fontFamily=Verdana;fontSize=12;rotation=0;" parent="1" vertex="1">
          <mxGeometry x="230" y="517.5" width="100" height="20" as="geometry" />
        </mxCell>
        <mxCell id="1cb643a89b7d889d-8" value="&lt;div&gt;&lt;br&gt;&lt;/div&gt;&lt;div&gt;&lt;br&gt;&lt;/div&gt;" style="edgeStyle=orthogonalEdgeStyle;rounded=0;html=1;exitX=1;exitY=0.5;exitPerimeter=0;entryX=0.7;entryY=0;entryPerimeter=0;labelBackgroundColor=none;startArrow=none;startFill=0;startSize=5;endArrow=none;endFill=0;endSize=5;jettySize=auto;orthogonalLoop=1;strokeWidth=1;fontFamily=Verdana;fontSize=12;entryDx=0;entryDy=0;" parent="1" source="GaHxVwi4L-G9XIAZe9X9-2" target="ux__k0yZ66-EXdQKW9eR-2" edge="1">
          <mxGeometry relative="1" as="geometry">
            <Array as="points">
              <mxPoint x="218" y="422" />
            </Array>
          </mxGeometry>
        </mxCell>
        <mxCell id="1cb643a89b7d889d-16" style="edgeStyle=orthogonalEdgeStyle;rounded=0;html=1;exitX=0;exitY=0.5;exitPerimeter=0;labelBackgroundColor=none;startArrow=none;startFill=0;startSize=5;endArrow=none;endFill=0;endSize=5;jettySize=auto;orthogonalLoop=1;strokeWidth=1;fontFamily=Verdana;fontSize=12;entryX=0.7;entryY=1;entryDx=0;entryDy=0;entryPerimeter=0;" parent="1" source="1cb643a89b7d889d-7" target="ux__k0yZ66-EXdQKW9eR-2" edge="1">
          <mxGeometry relative="1" as="geometry">
            <mxPoint x="612" y="170" as="targetPoint" />
            <Array as="points">
              <mxPoint x="477" y="290" />
              <mxPoint x="477" y="422" />
            </Array>
          </mxGeometry>
        </mxCell>
        <mxCell id="1cb643a89b7d889d-7" value="3.3 V" style="verticalLabelPosition=bottom;shadow=0;dashed=0;align=center;fillColor=default;html=1;verticalAlign=top;strokeWidth=1;shape=mxgraph.electrical.miscellaneous.monocell_battery;rounded=1;comic=0;labelBackgroundColor=none;fontFamily=Verdana;fontSize=12;flipH=1;" parent="1" vertex="1">
          <mxGeometry x="337.5" y="260" width="100" height="60" as="geometry" />
        </mxCell>
        <mxCell id="ux__k0yZ66-EXdQKW9eR-2" value="" style="verticalLabelPosition=bottom;shadow=0;dashed=0;align=center;html=1;verticalAlign=top;shape=mxgraph.electrical.transistors.npn_transistor_1;rotation=-90;" parent="1" vertex="1">
          <mxGeometry x="340" y="390" width="95" height="100" as="geometry" />
        </mxCell>
        <mxCell id="ux__k0yZ66-EXdQKW9eR-4" value="D2" style="pointerEvents=1;verticalLabelPosition=bottom;shadow=0;dashed=0;align=center;html=1;verticalAlign=top;shape=mxgraph.electrical.plc_ladder.output_1;" parent="1" vertex="1">
          <mxGeometry x="102" y="515" width="50" height="25" as="geometry" />
        </mxCell>
        <mxCell id="ux__k0yZ66-EXdQKW9eR-6" value="" style="endArrow=none;html=1;rounded=0;exitX=1;exitY=0.5;exitDx=0;exitDy=0;exitPerimeter=0;entryX=0;entryY=0.5;entryDx=0;entryDy=0;entryPerimeter=0;" parent="1" source="ux__k0yZ66-EXdQKW9eR-4" target="1cb643a89b7d889d-6" edge="1">
          <mxGeometry width="50" height="50" relative="1" as="geometry">
            <mxPoint x="200" y="550" as="sourcePoint" />
            <mxPoint x="250" y="500" as="targetPoint" />
          </mxGeometry>
        </mxCell>
        <mxCell id="ux__k0yZ66-EXdQKW9eR-7" value="" style="endArrow=none;html=1;rounded=0;exitX=1;exitY=0.5;exitDx=0;exitDy=0;exitPerimeter=0;entryX=0;entryY=0.5;entryDx=0;entryDy=0;entryPerimeter=0;" parent="1" source="1cb643a89b7d889d-6" target="ux__k0yZ66-EXdQKW9eR-2" edge="1">
          <mxGeometry width="50" height="50" relative="1" as="geometry">
            <mxPoint x="340" y="600" as="sourcePoint" />
            <mxPoint x="390" y="550" as="targetPoint" />
            <Array as="points">
              <mxPoint x="388" y="528" />
            </Array>
          </mxGeometry>
        </mxCell>
        <mxCell id="ux__k0yZ66-EXdQKW9eR-8" value="Esp8266 V3.3 Pin" style="text;html=1;align=center;verticalAlign=middle;resizable=0;points=[];autosize=1;strokeColor=none;fillColor=none;" parent="1" vertex="1">
          <mxGeometry x="260" y="260" width="120" height="30" as="geometry" />
        </mxCell>
        <mxCell id="ux__k0yZ66-EXdQKW9eR-9" value="Esp8266 G Pin" style="text;html=1;align=center;verticalAlign=middle;resizable=0;points=[];autosize=1;strokeColor=none;fillColor=none;" parent="1" vertex="1">
          <mxGeometry x="400" y="260" width="100" height="30" as="geometry" />
        </mxCell>
        <mxCell id="GaHxVwi4L-G9XIAZe9X9-1" value="" style="edgeStyle=orthogonalEdgeStyle;rounded=0;html=1;exitX=1;exitY=0.5;exitPerimeter=0;entryX=0;entryY=0.5;entryPerimeter=0;labelBackgroundColor=none;startArrow=none;startFill=0;startSize=5;endArrow=none;endFill=0;endSize=5;jettySize=auto;orthogonalLoop=1;strokeWidth=1;fontFamily=Verdana;fontSize=12;entryDx=0;entryDy=0;" edge="1" parent="1" source="1cb643a89b7d889d-7" target="GaHxVwi4L-G9XIAZe9X9-2">
          <mxGeometry relative="1" as="geometry">
            <Array as="points">
              <mxPoint x="218" y="290" />
              <mxPoint x="218" y="334" />
            </Array>
            <mxPoint x="338" y="290" as="sourcePoint" />
            <mxPoint x="338" y="422" as="targetPoint" />
          </mxGeometry>
        </mxCell>
        <mxCell id="GaHxVwi4L-G9XIAZe9X9-2" value="" style="pointerEvents=1;fillColor=strokeColor;verticalLabelPosition=bottom;shadow=0;dashed=0;align=center;html=1;verticalAlign=top;shape=mxgraph.electrical.diodes.diode;rotation=90;" vertex="1" parent="1">
          <mxGeometry x="168" y="335" width="100" height="60" as="geometry" />
        </mxCell>
        <mxCell id="GaHxVwi4L-G9XIAZe9X9-3" value="" style="endArrow=classic;html=1;rounded=0;" edge="1" parent="1">
          <mxGeometry width="50" height="50" relative="1" as="geometry">
            <mxPoint x="259" y="351" as="sourcePoint" />
            <mxPoint x="288" y="375" as="targetPoint" />
          </mxGeometry>
        </mxCell>
        <mxCell id="GaHxVwi4L-G9XIAZe9X9-4" value="" style="endArrow=classic;html=1;rounded=0;" edge="1" parent="1">
          <mxGeometry width="50" height="50" relative="1" as="geometry">
            <mxPoint x="256" y="361" as="sourcePoint" />
            <mxPoint x="284" y="385" as="targetPoint" />
          </mxGeometry>
        </mxCell>
        <mxCell id="GaHxVwi4L-G9XIAZe9X9-5" value="" style="endArrow=classic;html=1;rounded=0;" edge="1" parent="1">
          <mxGeometry width="50" height="50" relative="1" as="geometry">
            <mxPoint x="254" y="371" as="sourcePoint" />
            <mxPoint x="279" y="395" as="targetPoint" />
          </mxGeometry>
        </mxCell>
        <mxCell id="GaHxVwi4L-G9XIAZe9X9-6" value="IR Diode" style="text;html=1;align=center;verticalAlign=middle;resizable=0;points=[];autosize=1;strokeColor=none;fillColor=none;" vertex="1" parent="1">
          <mxGeometry x="132" y="355" width="65" height="26" as="geometry" />
        </mxCell>
        <mxCell id="GaHxVwi4L-G9XIAZe9X9-7" value="2N 3904" style="text;html=1;align=center;verticalAlign=middle;resizable=0;points=[];autosize=1;strokeColor=none;fillColor=none;" vertex="1" parent="1">
          <mxGeometry x="429" y="432" width="63" height="26" as="geometry" />
        </mxCell>
      </root>
    </mxGraphModel>
  </diagram>
</mxfile>
